<svg width="96" height="96" viewBox="0 0 64 64" id="emoji" xmlns="http://www.w3.org/2000/svg">
  <title>Peereflits</title>
  <g id="peer" transform="translate(41 -18) rotate(55)">
	<path fill="#b1cc33" stroke="#b1cc33" stroke-miterlimit="10" stroke-width="2" d="M56.599,32.8694 c6.3433,6.3433,6.3359,16.6243,0,22.9601c-6.3433,6.3433-16.6169,6.3433-22.9601,0c-0.1776-0.1776-0.3405-0.3553-0.5107-0.5403 c-1.5396-1.6728-2.6573-3.6046-3.3604-5.6401c-0.6588-1.5469-1.2509-3.1901-1.8431-4.8481 c-1.5987-4.4558-3.1901-8.9931-6.2396-12.0426c-3.2716-3.2716-3.2716-8.5711,0-11.8427c3.2641-3.2641,8.5712-3.2716,11.8427,0 c3.0495,3.0495,7.5868,4.6409,12.0426,6.2396c1.658,0.5922,3.3012,1.1843,4.8482,1.843c2.1169,0.9178,4.0709,1.9689,5.6401,3.3604 C56.2438,32.529,56.4214,32.6918,56.599,32.8694z"></path>
	<path fill="#5c9e31" stroke="none" d="M56.5987,55.8297c-4.7458,4.7574-11.3865,4.6603-11.3865,4.6603 C67.4175,47.2917,50.42,28.9939,50.42,28.9939s4.0668,1.9735,5.6346,3.366c0.1937,0.166,0.3689,0.332,0.5441,0.5072 C62.9434,39.2118,62.9265,49.4865,56.5987,55.8297z"></path>
    <path fill="none" stroke="#4d2600" stroke-linecap="round" stroke-linejoin="round" stroke-miterlimit="10" stroke-width="2" d="M21.7378,21.5926c0,0-5.271,-5.1624-10.4878,0"></path>
    <path fill="none" stroke="#800000" stroke-linecap="round" stroke-linejoin="round" stroke-miterlimit="10" stroke-width="2" d="M24.8805,18.9186c2.9293-1.0048,6.3086-0.3418,8.6475,1.9971c3.0495,3.0495,7.5868,4.6409,12.0426,6.2396 c1.658,0.5922,3.3012,1.1843,4.8482,1.843c2.1169,0.9178,4.0709,1.9689,5.6401,3.3604c0.185,0.1702,0.3627,0.333,0.5403,0.5107 c6.3433,6.3433,6.3359,16.6243,0,22.9601c-6.3433,6.3433-16.6169,6.3433-22.9601,0c-0.1776-0.1776-0.3405-0.3553-0.5107-0.5403 c-1.5396-1.6728-2.6573-3.6046-3.3604-5.6401c-0.6588-1.5469-1.2509-3.1901-1.8431-4.8481 c-1.5987-4.4558-3.1901-8.9931-6.2396-12.0426c-2.1564-2.1564-2.8915-5.1939-2.2052-7.9509"></path>
  </g>
  <g id="flits" transform="translate(16 20) scale(1.8)">
    <defs>
      <linearGradient id="lightning" x1="-175.993" y1="-343.723" x2="-175.993" y2="-359.232" gradientTransform="translate(212.573 370.548) scale(1.156 1.029)" gradientUnits="userSpaceOnUse">
	    <stop offset="0" stop-color="#fea11b" />
	    <stop offset="0.284" stop-color="#fea51a" />
	    <stop offset="0.547" stop-color="#feb018" />
	    <stop offset="0.8" stop-color="#ffc314" />
	    <stop offset="1" stop-color="#ffd70f" />
      </linearGradient>
    </defs>
    <path d="M8.459,9.9H4.87a.193.193,0,0,1-.2-.181.166.166,0,0,1,.018-.075L8.991,1.13a.206.206,0,0,1,.186-.106h4.245a.193.193,0,0,1,.2.181.165.165,0,0,1-.035.1L8.534,7.966h4.928a.193.193,0,0,1,.2.181.176.176,0,0,1-.052.122L5.421,16.788c-.077.046-.624.5-.356-.189h0Z" fill="url(#lightning)" />
  </g>
</svg>